<?xml version="1.0" encoding="iso-8859-1"?>
<!-- Uploaded to: SVG Repo, www.svgrepo.com, Generator: SVG Repo Mixer Tools -->
<svg fill="#000000" version="1.1" id="Layer_1" xmlns="http://www.w3.org/2000/svg" xmlns:xlink="http://www.w3.org/1999/xlink" 
	 viewBox="0 0 512 512" xml:space="preserve">
<g>
	<g>
		<rect x="245.07" y="387.009" width="21.682" height="21.682"/>
	</g>
</g>
<g>
	<g>
		<path d="M329.696,150.059v-23.115L258.526,0.521l-71.171,126.422v23.115H0V444.71h212.114v35.422h-53.29v31.347h53.29h87.771
			h53.29v-31.347h-53.29V444.71H512V150.059H329.696z M250.38,78.891h16.292l24.526,43.567h-65.345L250.38,78.891z M218.701,153.805
			h79.648v196.341h-79.648V153.805z M31.347,181.405h156.007v0.001v168.74H31.347V181.405z M268.539,480.132h-25.078V444.71h25.078
			V480.132z M480.653,413.363H299.886h-87.771H31.347v-31.869h156.007h142.342h150.956V413.363z M480.653,181.406v168.74H329.696
			V181.405h150.957V181.406z"/>
	</g>
</g>
</svg>